<svg aria-hidden="true" style="width:0;height:0;position:absolute;overflow:hidden" xmlns="http://www.w3.org/2000/svg"><defs><symbol id="icon-hero-ul" viewBox="0 0 32 32"><path d="m9.6 24 8-8-8-8 1.6-3.2L22.4 16 11.2 27.2 9.6 24z"/></symbol><symbol id="icon-apple" viewBox="0 0 32 32"><path d="M19.884 10.667c-1.68 0-2.39.807-3.561.807-1.2 0-2.115-.802-3.571-.802-1.425 0-2.945.876-3.91 2.369-1.355 2.105-1.125 6.069 1.07 9.446.785 1.209 1.834 2.565 3.209 2.579h.025c1.195 0 1.55-.788 3.195-.797h.025c1.62 0 1.945.793 3.136.793h.025c1.375-.015 2.48-1.517 3.265-2.721.565-.866.775-1.301 1.209-2.281-3.175-1.214-3.685-5.746-.545-7.483-.959-1.208-2.305-1.908-3.575-1.908l.004-.002zM19.699 6.4c-.967.065-2.096.67-2.757 1.459-.6.716-1.093 1.778-.9 2.807h.077c1.03 0 2.085-.609 2.7-1.39.593-.743 1.043-1.796.879-2.877z"/></symbol><symbol id="icon-android" viewBox="0 0 32 32"><path d="M10.623 20.922c0 .501.425.911.947.911h1.082v2.58c0 .654.545 1.187 1.214 1.187a1.2 1.2 0 0 0 1.214-1.187v-2.582h1.889v2.58c0 .654.545 1.187 1.214 1.187a1.2 1.2 0 0 0 1.214-1.187v-2.58h1.082c.522 0 .947-.409.947-.911v-8.468H10.623v8.47zm7.938-12.858.998-1.393c.058-.081.044-.191-.033-.244-.078-.051-.189-.026-.247.056l-1.036 1.448c-.682-.259-1.443-.403-2.241-.403s-1.558.144-2.241.403l-1.036-1.446c-.058-.081-.169-.109-.247-.056-.078.051-.091.159-.033.244l.998 1.393c-1.587.711-2.698 2.059-2.841 3.634h10.803c-.147-1.577-1.26-2.925-2.845-3.636zm-4.839 2.196c-.118 0-.234-.034-.332-.097s-.175-.153-.22-.259a.56.56 0 0 1 .13-.628.616.616 0 0 1 .919.087.567.567 0 0 1 .101.32c0 .153-.064.299-.176.407s-.264.169-.422.169zm4.632 0c-.118 0-.234-.034-.332-.097s-.175-.153-.22-.259a.56.56 0 0 1 .13-.628.62.62 0 0 1 .652-.125c.109.044.203.117.268.212s.101.206.101.32c0 .153-.064.299-.176.407s-.264.169-.422.169zm4.966 2.158a1.2 1.2 0 0 0-1.214 1.187v4.637c0 .654.545 1.187 1.214 1.187a1.2 1.2 0 0 0 1.214-1.187v-4.639c.002-.656-.54-1.185-1.214-1.185zm-14.64 0a1.2 1.2 0 0 0-1.214 1.187v4.637c0 .654.545 1.187 1.214 1.187a1.2 1.2 0 0 0 1.214-1.187v-4.639c0-.656-.545-1.185-1.214-1.185z"/></symbol><symbol id="icon-facebook" viewBox="0 0 32 32"><path d="M22.4 2.667h-4a6.67 6.67 0 0 0-6.667 6.667v4h-4v5.333h4v10.667h5.333V18.667h4l1.333-5.333h-5.333v-4A1.335 1.335 0 0 1 18.4 8h4V2.667z"/></symbol><symbol id="icon-linkedin" viewBox="0 0 32 32"><path d="M8.268 28H2.463V9.306h5.805V28zM5.362 6.756C3.506 6.756 2 5.218 2 3.362A3.366 3.366 0 0 1 5.362 0a3.366 3.366 0 0 1 3.362 3.362c0 1.856-1.506 3.394-3.362 3.394zM29.994 28h-5.792v-9.1c0-2.169-.044-4.95-3.018-4.95-3.018 0-3.481 2.356-3.481 4.794V28h-5.799V9.306h5.567v2.55h.081c.775-1.469 2.668-3.019 5.492-3.019 5.875 0 6.955 3.869 6.955 8.894V28h-.005z"/></symbol><symbol id="icon-twitter" viewBox="0 0 32 32"><path d="M30.134 5.599a13.49 13.49 0 0 1-3.882 1.892 5.548 5.548 0 0 0-6.155-1.54 5.545 5.545 0 0 0-3.564 5.249v1.236A13.184 13.184 0 0 1 5.406 6.835S.461 17.962 11.588 22.908a14.397 14.397 0 0 1-8.655 2.473c11.127 6.182 24.727 0 24.727-14.218a5.522 5.522 0 0 0-.099-1.026A9.55 9.55 0 0 0 30.133 5.6z"/></symbol></defs></svg>