<svg aria-hidden="true" style="position: absolute; width: 0; height: 0; overflow: hidden;" version="1.1" xmlns="http://www.w3.org/2000/svg" xmlns:xlink="http://www.w3.org/1999/xlink">
<defs>
<symbol id="icon-hero-ul" viewBox="0 0 32 32">
<path d="M9.6 24l8-8-8-8 1.6-3.2 11.2 11.2-11.2 11.2-1.6-3.2z"></path>
</symbol>
<symbol id="icon-apple" viewBox="0 0 32 32">
<path d="M19.884 10.667c-1.68 0-2.39 0.807-3.561 0.807-1.2 0-2.115-0.802-3.571-0.802-1.425 0-2.945 0.876-3.91 2.369-1.355 2.105-1.125 6.069 1.070 9.446 0.785 1.209 1.834 2.565 3.209 2.579h0.025c1.195 0 1.55-0.788 3.195-0.797h0.025c1.62 0 1.945 0.793 3.136 0.793h0.025c1.375-0.015 2.48-1.517 3.265-2.721 0.565-0.866 0.775-1.301 1.209-2.281-3.175-1.214-3.685-5.746-0.545-7.483-0.959-1.208-2.305-1.908-3.575-1.908l0.004-0.002z"></path>
<path d="M19.699 6.4c-0.967 0.065-2.096 0.67-2.757 1.459-0.6 0.716-1.093 1.778-0.9 2.807h0.077c1.030 0 2.085-0.609 2.7-1.39 0.593-0.743 1.043-1.796 0.879-2.877z"></path>
</symbol>
<symbol id="icon-android" viewBox="0 0 32 32">
<path d="M10.623 20.922c0 0.501 0.425 0.911 0.947 0.911h1.082v2.58c0 0.654 0.545 1.187 1.214 1.187 0.671 0 1.214-0.531 1.214-1.187v-2.582h1.889v2.58c0 0.654 0.545 1.187 1.214 1.187 0.671 0 1.214-0.531 1.214-1.187v-2.58h1.082c0.522 0 0.947-0.409 0.947-0.911v-8.468h-10.803v8.47zM18.561 8.064l0.998-1.393c0.058-0.081 0.044-0.191-0.033-0.244-0.078-0.051-0.189-0.026-0.247 0.056l-1.036 1.448c-0.682-0.259-1.443-0.403-2.241-0.403s-1.558 0.144-2.241 0.403l-1.036-1.446c-0.058-0.081-0.169-0.109-0.247-0.056-0.078 0.051-0.091 0.159-0.033 0.244l0.998 1.393c-1.587 0.711-2.698 2.059-2.841 3.634h10.803c-0.147-1.577-1.26-2.925-2.845-3.636v0zM13.722 10.26c-0.118 0-0.234-0.034-0.332-0.097s-0.175-0.153-0.22-0.259c-0.045-0.105-0.057-0.221-0.034-0.333s0.080-0.214 0.164-0.295c0.084-0.081 0.19-0.136 0.306-0.158s0.236-0.011 0.345 0.033c0.109 0.044 0.203 0.117 0.268 0.212s0.101 0.206 0.101 0.32c-0 0.153-0.064 0.299-0.176 0.407s-0.264 0.169-0.422 0.169v0zM18.354 10.26c-0.118 0-0.234-0.034-0.332-0.097s-0.175-0.153-0.22-0.259c-0.045-0.105-0.057-0.221-0.034-0.333s0.080-0.214 0.164-0.295c0.084-0.081 0.19-0.136 0.306-0.158s0.236-0.011 0.346 0.033c0.109 0.044 0.203 0.117 0.268 0.212s0.101 0.206 0.101 0.32c-0 0.153-0.064 0.299-0.176 0.407s-0.264 0.169-0.422 0.169zM23.32 12.418c-0.671 0-1.214 0.531-1.214 1.187v4.637c0 0.654 0.545 1.187 1.214 1.187 0.671 0 1.214-0.531 1.214-1.187v-4.639c0.002-0.656-0.54-1.185-1.214-1.185zM8.68 12.418c-0.671 0-1.214 0.531-1.214 1.187v4.637c0 0.654 0.545 1.187 1.214 1.187 0.671 0 1.214-0.531 1.214-1.187v-4.639c0-0.656-0.545-1.185-1.214-1.185z"></path>
</symbol>
<symbol id="icon-facebook" viewBox="0 0 32 32">
<path d="M22.4 2.667h-4c-1.768 0-3.464 0.702-4.714 1.953s-1.953 2.946-1.953 4.714v4h-4v5.333h4v10.667h5.333v-10.667h4l1.333-5.333h-5.333v-4c0-0.354 0.14-0.693 0.391-0.943s0.589-0.391 0.943-0.391h4v-5.333z"></path>
</symbol>
<symbol id="icon-linkedin" viewBox="0 0 32 32">
<path d="M8.268 28h-5.805v-18.694h5.805v18.694zM5.362 6.756c-1.856 0-3.362-1.538-3.362-3.394 0-0.892 0.354-1.747 0.985-2.377s1.486-0.985 2.377-0.985c0.892 0 1.747 0.354 2.377 0.985s0.985 1.486 0.985 2.377c0 1.856-1.506 3.394-3.362 3.394zM29.994 28h-5.792v-9.1c0-2.169-0.044-4.95-3.018-4.95-3.018 0-3.481 2.356-3.481 4.794v9.256h-5.799v-18.694h5.567v2.55h0.081c0.775-1.469 2.668-3.019 5.492-3.019 5.875 0 6.955 3.869 6.955 8.894v10.269h-0.005z"></path>
</symbol>
<symbol id="icon-twitter" viewBox="0 0 32 32">
<path d="M30.134 5.599c-1.184 0.835-2.495 1.474-3.882 1.892-0.744-0.856-1.734-1.463-2.835-1.738s-2.26-0.206-3.32 0.198c-1.060 0.405-1.97 1.125-2.608 2.064s-0.971 2.051-0.956 3.185v1.236c-2.173 0.056-4.326-0.426-6.267-1.403s-3.611-2.419-4.86-4.198c0 0-4.945 11.127 6.182 16.073-2.546 1.728-5.58 2.595-8.655 2.473 11.127 6.182 24.727 0 24.727-14.218-0.001-0.344-0.034-0.688-0.099-1.026 1.262-1.244 2.152-2.816 2.572-4.537z"></path>
</symbol>
<symbol id="icon-ellipse" viewBox="0 0 32 32">
<path fill="#939eac" style="fill: var(--color1, #939eac)" d="M32 16c0 8.837-7.163 16-16 16s-16-7.163-16-16c0-8.837 7.163-16 16-16s16 7.163 16 16z"></path>
</symbol>
</defs>
</svg>
