<svg aria-hidden="true" style="position: absolute; width: 0; height: 0; overflow: hidden;" version="1.1" xmlns="http://www.w3.org/2000/svg" xmlns:xlink="http://www.w3.org/1999/xlink">
<defs>
<symbol id="icon-hero-ul" viewBox="0 0 32 32"><path d="m9.6 24 8-8-8-8 1.6-3.2L22.4 16 11.2 27.2 9.6 24z"/></symbol>
<symbol id="icon-apple" viewBox="0 0 32 32">
<path d="M19.884 10.667c-1.68 0-2.39 0.807-3.561 0.807-1.2 0-2.115-0.802-3.571-0.802-1.425 0-2.945 0.876-3.91 2.369-1.355 2.105-1.125 6.069 1.070 9.446 0.785 1.209 1.834 2.565 3.209 2.579h0.025c1.195 0 1.55-0.788 3.195-0.797h0.025c1.62 0 1.945 0.793 3.136 0.793h0.025c1.375-0.015 2.48-1.517 3.265-2.721 0.565-0.866 0.775-1.301 1.209-2.281-3.175-1.214-3.685-5.746-0.545-7.483-0.959-1.208-2.305-1.908-3.575-1.908l0.004-0.002z"></path>
<path d="M19.699 6.4c-0.967 0.065-2.096 0.67-2.757 1.459-0.6 0.716-1.093 1.778-0.9 2.807h0.077c1.030 0 2.085-0.609 2.7-1.39 0.593-0.743 1.043-1.796 0.879-2.877z"></path>
</symbol>
<symbol id="icon-android" viewBox="0 0 32 32">
<path d="M10.623 20.922c0 0.501 0.425 0.911 0.947 0.911h1.082v2.58c0 0.654 0.545 1.187 1.214 1.187 0.671 0 1.214-0.531 1.214-1.187v-2.582h1.889v2.58c0 0.654 0.545 1.187 1.214 1.187 0.671 0 1.214-0.531 1.214-1.187v-2.58h1.082c0.522 0 0.947-0.409 0.947-0.911v-8.468h-10.803v8.47zM18.561 8.064l0.998-1.393c0.058-0.081 0.044-0.191-0.033-0.244-0.078-0.051-0.189-0.026-0.247 0.056l-1.036 1.448c-0.682-0.259-1.443-0.403-2.241-0.403s-1.558 0.144-2.241 0.403l-1.036-1.446c-0.058-0.081-0.169-0.109-0.247-0.056-0.078 0.051-0.091 0.159-0.033 0.244l0.998 1.393c-1.587 0.711-2.698 2.059-2.841 3.634h10.803c-0.147-1.577-1.26-2.925-2.845-3.636v0zM13.722 10.26c-0.118 0-0.234-0.034-0.332-0.097s-0.175-0.153-0.22-0.259c-0.045-0.105-0.057-0.221-0.034-0.333s0.080-0.214 0.164-0.295c0.084-0.081 0.19-0.136 0.306-0.158s0.236-0.011 0.345 0.033c0.109 0.044 0.203 0.117 0.268 0.212s0.101 0.206 0.101 0.32c-0 0.153-0.064 0.299-0.176 0.407s-0.264 0.169-0.422 0.169v0zM18.354 10.26c-0.118 0-0.234-0.034-0.332-0.097s-0.175-0.153-0.22-0.259c-0.045-0.105-0.057-0.221-0.034-0.333s0.080-0.214 0.164-0.295c0.084-0.081 0.19-0.136 0.306-0.158s0.236-0.011 0.346 0.033c0.109 0.044 0.203 0.117 0.268 0.212s0.101 0.206 0.101 0.32c-0 0.153-0.064 0.299-0.176 0.407s-0.264 0.169-0.422 0.169zM23.32 12.418c-0.671 0-1.214 0.531-1.214 1.187v4.637c0 0.654 0.545 1.187 1.214 1.187 0.671 0 1.214-0.531 1.214-1.187v-4.639c0.002-0.656-0.54-1.185-1.214-1.185zM8.68 12.418c-0.671 0-1.214 0.531-1.214 1.187v4.637c0 0.654 0.545 1.187 1.214 1.187 0.671 0 1.214-0.531 1.214-1.187v-4.639c0-0.656-0.545-1.185-1.214-1.185z"></path>
</symbol>
</defs>
</svg>